<svg xmlns="http://www.w3.org/2000/svg" width="33" height="32">
    <path fill="#FFF" fill-rule="evenodd" stroke="#FFF" stroke-width="2" d="M27.927 10.739l-3.885 9.416c-.142.328-.439.538-.78.538H12.586c-.383 0-.724-.269-.823-.658L8.289 6.793H5.851C5.383 6.793 5 6.39 5 5.896 5 5.403 5.383 5 5.851 5h3.076c.383 0 .724.269.823.657l3.474 13.242h9.471l3.148-7.622H15.35c-.468 0-.85-.404-.85-.897s.382-.897.85-.897h11.797c.284 0 .553.15.709.404.156.254.185.568.071.852zm-16.15 12.195c1.064 0 1.929.912 1.929 2.033S12.841 27 11.777 27c-1.063 0-1.928-.912-1.928-2.033s.865-2.033 1.928-2.033zm11.925 0c1.063-.074 1.985.778 2.056 1.884.028.553-.128 1.076-.468 1.48-.34.418-.808.657-1.319.702h-.141c-1.007 0-1.844-.837-1.915-1.898-.071-1.106.724-2.093 1.787-2.168z"/>
</svg>
