<svg xmlns="http://www.w3.org/2000/svg" width="32" height="29">
    <path fill="#222" fill-rule="evenodd" d="M31.899 7.565l-5.406 12.412c-.197.433-.611.709-1.084.709H10.554c-.533 0-1.006-.355-1.144-.867L4.577 2.364H1.183C.533 2.364 0 1.832 0 1.182 0 .532.533 0 1.183 0h4.281c.533 0 1.006.354 1.145.866l4.833 17.456h13.177l4.38-10.048H14.401c-.651 0-1.184-.532-1.184-1.182 0-.65.533-1.182 1.184-1.182h16.413c.394 0 .769.197.986.532.217.335.256.749.099 1.123zM9.429 23.641c1.48 0 2.683 1.202 2.683 2.679 0 1.478-1.203 2.68-2.683 2.68-1.479 0-2.682-1.202-2.682-2.68 0-1.477 1.203-2.679 2.682-2.679zm16.591 0c1.48-.098 2.762 1.024 2.861 2.482.039.729-.178 1.419-.652 1.951-.473.552-1.124.867-1.834.926h-.197c-1.401 0-2.565-1.104-2.663-2.502-.099-1.458 1.006-2.759 2.485-2.857z"/>
</svg>
